<svg width="80" height="76" viewBox="0 0 80 76" fill="none" xmlns="http://www.w3.org/2000/svg">
<g clip-path="url(#clip0_265_483)">
<path d="M75.4401 45.9997C75.5876 43.4969 74.4774 40.9757 72.6149 39.5788C70.1547 37.8129 67.0349 37.6558 64.2792 37.5253C63.8447 37.5025 63.4176 37.4808 62.9967 37.455C62.6829 37.4109 62.283 37.3697 61.8774 37.3233C58.1779 36.9188 55.0705 36.6218 54.7259 33.8186C54.5597 32.4933 54.66 30.9436 54.9444 29.6215C54.9431 29.6212 54.9417 29.6209 54.9409 29.6209C55.627 26.7253 56.9676 23.7729 59.4945 19.7715C63.1694 13.953 63.8987 8.93813 58.9114 3.03624C53.9239 -2.86534 46.0201 1.17991 45.1452 3.92297C44.2704 6.66603 47.945 9.63082 45.8453 14.9506C44.6564 17.9619 37.2811 22.7498 31.2043 27.7513C26.9851 31.2234 23.4681 35.6767 22.7668 36.0631C21.0546 37.0044 7.71421 36.0631 7.71421 36.0631C5.96494 36.0631 4.54688 37.5517 4.54688 39.3878V68.4249C4.54688 70.2616 6.21504 71.8608 7.71421 71.7499C16.601 71.7499 21.2009 72.152 24.1365 72.6962C27.1681 73.2583 28.4248 73.9711 30.7958 74.5482C30.7958 74.5482 36.7667 75.7518 43.7451 75.9612C50.5896 76.1667 58.3769 75.5494 62.0289 74.1892C62.1944 74.1461 62.3593 74.1025 62.5177 74.0546C65.5389 72.8739 67.2348 70.2554 66.9054 67.4952C68.4182 66.7234 69.6855 65.3113 70.3889 63.6033C71.0168 62.0762 71.0999 60.5059 70.6467 59.1712C73.4331 56.9746 74.5676 53.2951 73.3676 50.3747C74.5931 49.3606 75.3357 47.8052 75.4401 45.9997Z" fill="#4D1717" stroke="#4D1717"/>
</g>
<defs>
<clipPath id="clip0_265_483">
<rect width="80" height="76" fill="white"/>
</clipPath>
</defs>
</svg>
