<svg width="1222" height="24" viewBox="0 0 1222 24" fill="none" xmlns="http://www.w3.org/2000/svg">
<path d="M1221.88 10.915C1221.85 5.02409 1217.05 0.276972 1211.15 0.312037C1205.26 0.347103 1200.52 5.15107 1200.55 11.042C1200.59 16.9329 1205.39 21.6801 1211.28 21.645C1217.17 21.6099 1221.92 16.806 1221.88 10.915ZM21.5036 12.3616C21.4686 6.47064 16.6646 1.72352 10.7737 1.75858C4.88281 1.79365 0.135682 6.59762 0.170747 12.4885C0.205812 18.3795 5.00979 23.1266 10.9007 23.0915C16.7916 23.0565 21.5387 18.2525 21.5036 12.3616ZM1211.22 10.9785L1211.22 8.97852L10.8348 10.4251L10.8372 12.4251L10.8396 14.4251L1211.22 12.9785L1211.22 10.9785Z" fill="white"/>
</svg>
