<?xml version="1.0" encoding="UTF-8"?>
<svg id="Layer_1" xmlns="http://www.w3.org/2000/svg" version="1.1" viewBox="0 0 968.6 1786.6">
  <!-- Generator: Adobe Illustrator 29.4.0, SVG Export Plug-In . SVG Version: 2.1.0 Build 152)  -->
  <defs>
    <style>
      .st0 {
        fill: #ed6464;
      }
    </style>
  </defs>
  <path class="st0" d="M968.6,628c0-27.7-22.5-50.2-50.2-50.2s-50.2,22.5-50.2,50.2,22.5,50.2,50.2,50.2.5,0,.8,0c14.6,87,5.3,148.7-18.4,196.1-28,55.8-76.9,93.3-135.3,128.6-84,50.7-187.4,96.3-265.5,186.6,17.1-38.4,34.1-77,50-115.6l1,.4c3.3-8.7,6.3-17.1,9.2-25.4,48.8-122.3,86.3-246.2,87.3-370.7,0-.2,0-.5,0-.7h.7c0-80,3.3-144.1,10.2-201.6,8.3-68.2,21.9-127,41.5-179.6,21.9-58.5,51-108.8,88.9-153.8,41.1-48.6,91.2-89.5,153.3-125.1l-9.9-17.4c-122.4,70.1-204.5,164.7-251.1,289.2-20.2,54.1-34.2,114.4-42.7,184.2-2.5,21-4.6,42.9-6.2,66.1-18.8-80-56.2-160.1-118.6-239.9l-7.4,5.8-7.4,5.8c89.2,114,125.6,227.8,129.4,341.4,0,8.1-.1,16.4-.1,24.9h.4c0,.2,0,.4,0,.5-.7,79.9-16.8,160-41.6,240.1.2-28.3-4.9-52.8-15-74.5-23.9-51-73.2-82.8-135.7-123.1-60-38.7-134.7-86.9-208.3-168.2C141.7,456.9,73.2,335,18.9,179.6l-18.9,6.6c55.3,157.9,125,282,213.2,379.5,75.4,83.3,151.3,132.3,212.3,171.6,59.7,38.5,106.9,69,128.4,114.8,22.9,48.8,16.2,115.1-21.6,215h.1c-22.3,54.2-46.7,108.3-71,162.4-27.5,61.2-54.9,122.4-79.1,183.3-.7,1.8-1.4,3.5-2.1,5.3,5.6-58.6,2.8-111.4-9-160.5-19.1-79.3-61.6-147.9-128.6-214.4,4.9-7.8,7.7-16.9,7.7-26.8,0-27.7-22.5-50.2-50.2-50.2s-50.2,22.5-50.2,50.2,22.5,50.2,50.2,50.2,21.3-3.6,29.6-9.7c64.9,64.6,105,130.1,123.1,205.1,17.4,72.3,14.5,154.2-7.8,253.7-25.7,80-42.7,159.8-43.8,239.2l-45.4-43.2c-3.8-3.6-9.7-3.4-13.3.3-3.6,3.8-3.4,9.7.3,13.3l61.4,58.4c3.8,3.6,9.7,3.4,13.3-.3l58.4-61.4c3.6-3.8,3.4-9.7-.3-13.3-3.8-3.6-9.7-3.4-13.3.3l-42.3,44.4c.5-27.7,2.9-55.4,7-83.3,44.4-189,113.9-271.4,188.5-305,59.9-26.9,124.8-23.4,187.6-14.8,1.1,26.8,23.1,48.2,50.2,48.2s50.2-22.5,50.2-50.2-22.5-50.2-50.2-50.2-40.5,14-47.4,33.6c-63.8-8.7-133.5-12.8-198.1,16.3-47.4,21.3-91.3,59.9-128.6,125.4,6.4-17.9,13.3-35.8,20.4-53.7,13-32.8,27-65.7,41.4-98.7l.8.3c69.2-174.1,214.1-230.5,333.1-302.4,59.1-35.7,111.9-75.5,142.4-136.3,26.1-52,35.3-118.3,20-208.3,18.2-7.5,31-25.5,31-46.4Z"/>
</svg>