<svg width="35" height="219" viewBox="0 0 35 219" fill="none" xmlns="http://www.w3.org/2000/svg">
<path d="M17 26L17 219" stroke="#4D1717" stroke-width="5"/>
<circle cx="17.5" cy="17.5" r="17.5" fill="#4D1717"/>
<path d="M17.126 11.294C18.8127 11.294 20.096 11.646 20.976 12.35C21.856 13.0393 22.296 13.9707 22.296 15.144C22.296 15.848 22.1053 16.4493 21.724 16.948C21.3573 17.432 20.9173 17.7987 20.404 18.048C20.712 18.1653 20.998 18.312 21.262 18.488C21.526 18.664 21.7607 18.884 21.966 19.148C22.1713 19.412 22.3327 19.72 22.45 20.072C22.5673 20.424 22.626 20.8347 22.626 21.304C22.626 21.9347 22.4867 22.4993 22.208 22.998C21.944 23.4967 21.57 23.922 21.086 24.274C20.602 24.626 20.0227 24.89 19.348 25.066C18.688 25.2567 17.962 25.352 17.17 25.352C15.6447 25.352 14.4933 25.1393 13.716 24.714C12.9387 24.2887 12.55 23.746 12.55 23.086C12.55 22.69 12.6453 22.3527 12.836 22.074C13.0267 21.7807 13.2613 21.5533 13.54 21.392C13.8333 21.5973 14.222 21.8173 14.706 22.052C15.2047 22.272 15.85 22.382 16.642 22.382C17.39 22.382 17.94 22.25 18.292 21.986C18.6587 21.722 18.842 21.3773 18.842 20.952C18.842 20.5267 18.6953 20.204 18.402 19.984C18.1233 19.764 17.632 19.654 16.928 19.654H14.86C14.7573 19.4927 14.6693 19.2947 14.596 19.06C14.5227 18.8253 14.486 18.5467 14.486 18.224C14.486 17.8867 14.5153 17.6007 14.574 17.366C14.6473 17.1167 14.7427 16.9113 14.86 16.75H16.928C17.984 16.75 18.512 16.3467 18.512 15.54C18.512 15.1587 18.3433 14.8507 18.006 14.616C17.6687 14.3813 17.1627 14.264 16.488 14.264C15.8867 14.264 15.3587 14.3373 14.904 14.484C14.4493 14.616 14.0753 14.7847 13.782 14.99C13.5327 14.814 13.3273 14.6013 13.166 14.352C13.0047 14.088 12.924 13.78 12.924 13.428C12.924 12.6947 13.3053 12.1593 14.068 11.822C14.8307 11.47 15.85 11.294 17.126 11.294Z" fill="white"/>
</svg>
