<svg width="32" height="136" viewBox="0 0 32 136" fill="none" xmlns="http://www.w3.org/2000/svg">
<path d="M16 32C24.8366 32 32 24.8366 32 16C32 7.16344 24.8366 1.4784e-07 16 -2.38419e-07C7.16344 -6.24677e-07 5.61105e-07 7.16344 1.74846e-07 16C-2.11413e-07 24.8366 7.16344 32 16 32ZM16 20L19 20L19 16L16 16L13 16L13 20L16 20Z" fill="#4D1717"/>
<path d="M16 28L16 136" stroke="#4D1717" stroke-width="4"/>
<path d="M15.302 8.294C16.138 8.294 16.8787 8.404 17.524 8.624C18.1693 8.82933 18.7193 9.11533 19.174 9.482C19.6287 9.84867 19.9733 10.2813 20.208 10.78C20.4427 11.2787 20.56 11.814 20.56 12.386C20.56 13.926 19.6873 15.3927 17.942 16.786L15.06 19.096H20.34C20.428 19.2573 20.5087 19.4627 20.582 19.712C20.67 19.9613 20.714 20.2327 20.714 20.526C20.714 21.054 20.5967 21.4353 20.362 21.67C20.1273 21.89 19.8193 22 19.438 22H11.804C11.4813 21.78 11.2247 21.5013 11.034 21.164C10.858 20.812 10.77 20.4013 10.77 19.932C10.77 19.4333 10.8727 19.0153 11.078 18.678C11.2833 18.326 11.5107 18.0473 11.76 17.842L14.796 15.246C15.1773 14.9233 15.4927 14.6373 15.742 14.388C15.9913 14.124 16.1893 13.8893 16.336 13.684C16.4973 13.4787 16.6073 13.288 16.666 13.112C16.7393 12.936 16.776 12.7673 16.776 12.606C16.776 12.1953 16.5927 11.8727 16.226 11.638C15.874 11.4033 15.434 11.286 14.906 11.286C14.3193 11.286 13.7913 11.3813 13.322 11.572C12.8673 11.748 12.486 11.9387 12.178 12.144C11.9287 11.968 11.7233 11.748 11.562 11.484C11.4007 11.22 11.32 10.912 11.32 10.56C11.32 9.79733 11.6793 9.23267 12.398 8.866C13.1167 8.48467 14.0847 8.294 15.302 8.294Z" fill="white"/>
</svg>
