<svg width="28" height="276" viewBox="0 0 28 276" fill="none" xmlns="http://www.w3.org/2000/svg">
<path d="M13.7246 27.0285C21.0884 27.0285 27.058 21.059 27.058 13.6952C27.058 6.3314 21.0884 0.361866 13.7246 0.361865C6.36082 0.361865 0.391288 6.3314 0.391288 13.6952C0.391287 21.059 6.36082 27.0285 13.7246 27.0285ZM13.7246 276L16.2246 276L16.2246 13.6952L13.7246 13.6952L11.2246 13.6952L11.2246 276L13.7246 276Z" fill="#1D719A"/>
<path d="M12.72 7.98C12.9733 7.9 13.26 7.83333 13.58 7.78C13.9133 7.72667 14.2133 7.7 14.48 7.7C14.7867 7.7 15.08 7.73333 15.36 7.8C15.6533 7.85333 15.9133 7.95333 16.14 8.1C16.3667 8.23333 16.5467 8.42 16.68 8.66C16.8133 8.9 16.88 9.2 16.88 9.56V14.88H18.66C18.74 15.0267 18.82 15.22 18.9 15.46C18.98 15.7 19.02 15.9533 19.02 16.22C19.02 16.7267 18.9067 17.0867 18.68 17.3C18.4533 17.5133 18.1667 17.62 17.82 17.62H16.88V19.98C16.7333 20.0067 16.5133 20.04 16.22 20.08C15.9267 20.1333 15.6467 20.16 15.38 20.16C15.0867 20.16 14.8267 20.1467 14.6 20.12C14.3733 20.0933 14.18 20.0333 14.02 19.94C13.8733 19.8333 13.76 19.6867 13.68 19.5C13.6 19.3133 13.56 19.06 13.56 18.74V17.62H8.54C8.23333 17.46 7.96667 17.2267 7.74 16.92C7.52667 16.6 7.42 16.2133 7.42 15.76C7.42 15.5067 7.45333 15.2267 7.52 14.92C7.58667 14.6133 7.7 14.3467 7.86 14.12L12.72 7.98ZM13.74 11.12H13.68L11.02 14.88H13.74V11.12Z" fill="white"/>
</svg>
