<svg width="56" height="125" viewBox="0 0 56 125" fill="none" xmlns="http://www.w3.org/2000/svg">
<path d="M16.1481 31.9993C24.9843 31.9175 32.0811 24.688 31.9993 15.8519C31.9175 7.01568 24.688 -0.0811329 15.8519 0.000683268C7.01568 0.0824995 -0.0811274 7.31196 0.000688773 16.1481C0.082505 24.9843 7.31197 32.0811 16.1481 31.9993ZM17 124L19.9999 123.972L18.9999 15.9722L16 16L13.0001 16.0278L14.0001 124.028L17 124Z" fill="#4D1717"/>
<path d="M54.7354 34.1359C55.4073 35.415 55.8213 36.8143 55.9537 38.2539C56.086 39.6935 55.9342 41.1452 55.5068 42.5259C55.0795 43.9067 54.385 45.1894 53.463 46.3008C52.541 47.4123 51.4097 48.3306 50.1337 49.0034L46.6094 50.8655L45.7428 51.3226C44.9466 51.7427 44.0648 51.9738 43.1655 51.9979C42.2662 52.022 41.3733 51.8386 40.5559 51.4618L26.7926 45.5651L28.0886 41.7093L36.2738 43.2949L32.0349 35.2174L25.2105 22.2139L28.535 20.4599L35.3594 33.4673L37.0015 32.6011L33.9931 26.8643L37.3157 25.1114L40.3241 30.8481L41.9663 29.982L39.6433 25.5543L42.9679 23.8004L45.2909 28.228L46.9339 27.3544L45.3396 24.3073L48.6632 22.5581L50.2575 25.6051L54.7345 34.1387L54.7354 34.1359ZM22.9476 23.9687C22.257 23.2756 21.7866 22.3927 21.5959 21.4317C21.4052 20.4707 21.5026 19.4745 21.8759 18.569C22.2493 17.6635 22.8818 16.8891 23.6936 16.3438C24.5054 15.7984 25.4601 15.5064 26.4372 15.5047C27.229 15.5056 28.0091 15.697 28.7119 16.0627C29.4148 16.4284 30.0198 16.9579 30.4764 17.6067C30.933 18.2554 31.2278 19.0045 31.3359 19.7911C31.4441 20.5778 31.3625 21.3789 31.0981 22.1274L31.9703 23.7806C32.5537 22.7998 32.8677 21.6816 32.8804 20.5396C32.8932 19.3976 32.6041 18.2726 32.0426 17.279C31.4812 16.2854 30.6674 15.4586 29.6839 14.8826C28.7005 14.3067 27.5825 14.0022 26.4437 14C24.7749 14.0002 23.1712 14.6497 21.9701 15.8116C20.7691 16.9735 20.0643 18.5574 20.0042 20.2298C19.944 21.9023 20.5332 23.5329 21.6477 24.7786C22.7621 26.0243 24.315 26.7878 25.9795 26.9086L25.1026 25.2364C24.2874 25.0069 23.5451 24.5703 22.9476 23.9687Z" fill="#ED6464"/>
<path d="M14.41 12.188L12.21 12.87C11.99 12.7233 11.77 12.518 11.55 12.254C11.33 11.99 11.22 11.6233 11.22 11.154C11.22 10.274 11.7553 9.658 12.826 9.306L15.29 8.47H16.104C16.7347 8.47 17.2333 8.65333 17.6 9.02C17.9667 9.38667 18.15 9.88533 18.15 10.516V21.978C17.9887 22.0073 17.7467 22.044 17.424 22.088C17.116 22.1467 16.8007 22.176 16.478 22.176C16.1553 22.176 15.862 22.154 15.598 22.11C15.3487 22.066 15.136 21.978 14.96 21.846C14.784 21.714 14.6447 21.538 14.542 21.318C14.454 21.0833 14.41 20.7827 14.41 20.416V12.188Z" fill="white"/>
</svg>
