<svg width="35" height="278" viewBox="0 0 35 278" fill="none" xmlns="http://www.w3.org/2000/svg">
<path d="M17 32C25.8366 32 33 24.8366 33 16C33 7.16344 25.8366 5.31108e-07 17 1.44849e-07C8.16344 -2.4141e-07 1 7.16344 1 16C1 24.8366 8.16344 32 17 32ZM17 20L20 20L20 16L17 16L14 16L14 20L17 20Z" fill="#4D1717"/>
<path d="M17 28L17 136" stroke="#4D1717" stroke-width="4"/>
<path d="M17 160L17 278" stroke="#4D1717" stroke-width="5"/>
<circle cx="17.5" cy="151.5" r="17.5" fill="#4D1717"/>
<path d="M16.302 8.294C17.138 8.294 17.8787 8.404 18.524 8.624C19.1693 8.82933 19.7193 9.11533 20.174 9.482C20.6287 9.84867 20.9733 10.2813 21.208 10.78C21.4427 11.2787 21.56 11.814 21.56 12.386C21.56 13.926 20.6873 15.3927 18.942 16.786L16.06 19.096H21.34C21.428 19.2573 21.5087 19.4627 21.582 19.712C21.67 19.9613 21.714 20.2327 21.714 20.526C21.714 21.054 21.5967 21.4353 21.362 21.67C21.1273 21.89 20.8193 22 20.438 22H12.804C12.4813 21.78 12.2247 21.5013 12.034 21.164C11.858 20.812 11.77 20.4013 11.77 19.932C11.77 19.4333 11.8727 19.0153 12.078 18.678C12.2833 18.326 12.5107 18.0473 12.76 17.842L15.796 15.246C16.1773 14.9233 16.4927 14.6373 16.742 14.388C16.9913 14.124 17.1893 13.8893 17.336 13.684C17.4973 13.4787 17.6073 13.288 17.666 13.112C17.7393 12.936 17.776 12.7673 17.776 12.606C17.776 12.1953 17.5927 11.8727 17.226 11.638C16.874 11.4033 16.434 11.286 15.906 11.286C15.3193 11.286 14.7913 11.3813 14.322 11.572C13.8673 11.748 13.486 11.9387 13.178 12.144C12.9287 11.968 12.7233 11.748 12.562 11.484C12.4007 11.22 12.32 10.912 12.32 10.56C12.32 9.79733 12.6793 9.23267 13.398 8.866C14.1167 8.48467 15.0847 8.294 16.302 8.294Z" fill="white"/>
<path d="M17.126 145.294C18.8127 145.294 20.096 145.646 20.976 146.35C21.856 147.039 22.296 147.971 22.296 149.144C22.296 149.848 22.1053 150.449 21.724 150.948C21.3573 151.432 20.9173 151.799 20.404 152.048C20.712 152.165 20.998 152.312 21.262 152.488C21.526 152.664 21.7607 152.884 21.966 153.148C22.1713 153.412 22.3327 153.72 22.45 154.072C22.5673 154.424 22.626 154.835 22.626 155.304C22.626 155.935 22.4867 156.499 22.208 156.998C21.944 157.497 21.57 157.922 21.086 158.274C20.602 158.626 20.0227 158.89 19.348 159.066C18.688 159.257 17.962 159.352 17.17 159.352C15.6447 159.352 14.4933 159.139 13.716 158.714C12.9387 158.289 12.55 157.746 12.55 157.086C12.55 156.69 12.6453 156.353 12.836 156.074C13.0267 155.781 13.2613 155.553 13.54 155.392C13.8333 155.597 14.222 155.817 14.706 156.052C15.2047 156.272 15.85 156.382 16.642 156.382C17.39 156.382 17.94 156.25 18.292 155.986C18.6587 155.722 18.842 155.377 18.842 154.952C18.842 154.527 18.6953 154.204 18.402 153.984C18.1233 153.764 17.632 153.654 16.928 153.654H14.86C14.7573 153.493 14.6693 153.295 14.596 153.06C14.5227 152.825 14.486 152.547 14.486 152.224C14.486 151.887 14.5153 151.601 14.574 151.366C14.6473 151.117 14.7427 150.911 14.86 150.75H16.928C17.984 150.75 18.512 150.347 18.512 149.54C18.512 149.159 18.3433 148.851 18.006 148.616C17.6687 148.381 17.1627 148.264 16.488 148.264C15.8867 148.264 15.3587 148.337 14.904 148.484C14.4493 148.616 14.0753 148.785 13.782 148.99C13.5327 148.814 13.3273 148.601 13.166 148.352C13.0047 148.088 12.924 147.78 12.924 147.428C12.924 146.695 13.3053 146.159 14.068 145.822C14.8307 145.47 15.85 145.294 17.126 145.294Z" fill="white"/>
</svg>
