<?xml version="1.0" encoding="UTF-8"?>
<svg id="Layer_1" xmlns="http://www.w3.org/2000/svg" version="1.1" viewBox="0 0 1069.4 844.1">
  <!-- Generator: Adobe Illustrator 29.5.1, SVG Export Plug-In . SVG Version: 2.1.0 Build 141)  -->
  <defs>
    <style>
      .st0 {
        fill: #38a7df;
      }
    </style>
  </defs>
  <path class="st0" d="M1069.2,458.3c0,6.6-1.2,12.8-3.2,19s-4.9,12.4-8.4,18.6c-4.1,7.6-9.1,15.3-13.9,23.3-1.3-1.9-2.7-3.7-4-5.4-4-5.2-8.1-9.4-11.6-13.3-3.5-3.9-6.2-7.5-7.8-11.3-3.6-8.2-5.5-17.5-6.4-27.1-1-11.4-3.7-23-8.5-33.9-2.9-6.6-7.5-13.7-12.9-20.4-3.9-4.8-8-9.3-12.3-13,0-1.4.2-2.8.2-4.2,0-2.8-.2-5.8-.6-8.7-2-13.8-7.1-26.9-14.1-39.1-.3-.5-.6-1.1-1-1.6,3.5.2,7.7,1.3,11.3,3,4.2,1.9,7.6,4.6,8.8,6.4,3.3,4.5,9.6,5.5,14.1,2.2s5.5-9.6,2.2-14.1c-4.3-5.7-10.2-9.8-16.7-12.8-6.6-3-13.8-4.9-21.3-4.9s-7,.4-10.4,1.5c-.3,0-.6.2-.9.3-3.8-4.8-7.9-9.4-12.2-13.9-19.9-20.8-43.8-37.7-65.1-49-23.9-12.8-48.1-18.2-72.1-18.2s-50.3,5.9-75.1,14.9c-6-4.9-12.7-9.1-20.2-12.4-.5-2.1-.7-3.8-.7-5.3s.3-3.5.9-5.7c.7-2.2,1.8-4.8,3.4-8.1,3.2-6.5,6.3-13,8.7-19.6,2.4-6.6,4-13.4,4-20.4s-.5-7.6-1.7-11.4c-1.2-3.8-3.1-7.4-5.7-10.7-5.2-6.7-12.8-11.8-22.8-15.9-12.7-5.2-25.3-7.6-36.6-10.2-11.4-2.6-21.3-5.6-29.4-10.7-5.4-3.5-10.1-7.9-14.3-14.4-3-4.7-9.3-6.1-14-3.1-4.7,3-6.1,9.3-3.1,14,5.7,9,12.8,15.7,20.4,20.6,7.6,4.9,15.7,7.9,23.7,10.3,16,4.6,31.8,6.7,45.5,12.3,5.8,2.4,9.8,4.9,12.4,7.3,2.6,2.4,3.8,4.5,4.6,6.8.5,1.6.8,3.2.8,5.2,0,3.7-1,8.3-2.9,13.7-1.9,5.3-4.6,11.2-7.7,17.4-1.9,3.8-3.5,7.3-4.6,11.1-1,3.2-1.7,6.7-1.8,10.2-7.4-1.6-14.5-2.3-21.3-2.3-12.7,0-24.2,2.5-35.3,5.8-11.1,3.3-21.8,7.3-33.2,10.8-8,2.4-16,3.4-24.2,3.4-11.7,0-23.9-2-36.7-4.5-5.5-1.1-10.8,2.5-11.9,8s2.5,10.8,8,11.9c13.1,2.6,26.6,4.9,40.6,4.9s19.9-1.2,30.1-4.3c12.2-3.8,23-7.8,33.1-10.8s19.5-4.9,29.6-4.9,12,.7,18.8,2.3c14.7,3.5,25.7,9.6,34.4,17.9,0,.1.2.2.3.3h0c2.4,2.3,4.7,4.8,6.8,7.5,9.7,12.3,16.1,28.6,20.1,47.6,1.2,5.5,6.5,9,12,7.8s9-6.5,7.8-12c-4.2-20.1-11.1-38.7-22.6-54,20.4-6.8,40.4-10.8,59.8-10.8s41.5,4.6,62.6,15.8c14.6,7.8,30.9,18.7,45.8,31.6s28.2,27.9,37.2,43.6c6,10.5,10.1,21.2,11.6,31.9.3,2.1.4,4,.4,5.8s-.2,4.3-.6,6.4c0,.2,0,.4,0,.6v.3c-.8,3.8-2.2,7.2-4.1,10.5-3.1,5.3-7.8,10.4-13.5,15.1-5.8,4.8-12.6,9.2-19.6,13.5.2-3.1.3-6.2.3-9.3,0-16.9-3.2-33.9-10.1-49.3-6.8-15.3-17.4-28.9-32-38.1-9.7-6.1-21.2-10.1-34.1-11.3-5.5-.5-10.8-.7-16.1-.7s-13.5.2-19.8.4c-5.6,0-10,4.7-9.9,10.3,0,5.6,4.7,10,10.3,9.9,6.7-.1,13.2-.4,19.5-.4s9.6.1,14.2.6c9.9.9,18.2,3.9,25.3,8.3,7.1,4.4,13,10.4,17.9,17.6,9.7,14.3,14.8,33.6,14.7,52.6,0,7.7-.8,15.2-2.4,22.4-21,12.9-39.4,27.6-56.9,43.2-6.6-8.9-14.4-16.6-23.2-22.6-.3-.2-.7-.5-1-.7,1.8-9.7,5.9-20.5,11.5-30.7,6.5-11.9,15-22.9,23.1-30.7,4-3.9,4.1-10.3.2-14.3s-10.3-4.1-14.3-.2c-9.8,9.5-19.2,21.9-26.7,35.5-5.5,10-10,20.7-12.6,31.5-5.8-1.8-11.9-2.8-18.1-2.8s-15.9,1.6-23.6,5.1-15.1,8.7-21.8,15.8c-7.7,8-12.8,17.4-16.3,27.1-1.9,5.2.8,11.1,6.1,13,5.2,1.9,11-.8,12.9-6.1,2.9-7.8,6.6-14.5,11.9-20,5.2-5.4,10.4-9,15.5-11.3s10.2-3.3,15.3-3.3c8.8,0,18,3.1,26.6,8.9,7.2,4.9,14,11.6,19.5,19.5-10.1,9.4-19.9,18.9-30,28.4-15.2,14.4-30.8,25.5-47.8,34-16.9,8.5-35.2,14.5-55.9,18.5-4.9.9-9.8,1.8-14.8,2.7-5.5,1-9.2,6.2-8.2,11.7s6.2,9.2,11.7,8.2c5-.9,10.1-1.8,15.2-2.8,22.2-4.3,42.3-10.8,61.1-20.3,18.8-9.4,36.1-21.8,52.6-37.4,32.8-31.1,62.5-60.8,99.9-83.5,9.5-5.8,21.1-12,32.2-19.5,11-7.5,21.7-16.4,28.8-28.5.3-.6.7-1.2,1-1.7,1,1.1,2,2.4,3,3.6,4.4,5.6,8.4,11.8,10.2,15.9,3.7,8.5,6,18,6.8,27.6,1,11,3.2,22.5,8,33.4,3,6.7,7.2,12,11.1,16.5,4,4.5,7.8,8.4,10.7,12.2,2.8,3.6,5.3,7.1,7.2,10.5,1,1.8,2.1,4.5,3,7.4.9,2.8,1.7,5.8,2.4,8.6.3,1.4.5,3,.8,4.7.9,6.3,1.6,14.2,1.6,24.5s-.2,11.4-.6,18.1v.3c-1,25.6-10.2,49.1-25.1,70.8s-35.6,41.5-59.2,59c-47,34.9-105.2,60.2-148.8,74.4-17.5,5.6-38.1,9.5-58.9,14.5s-41.9,11-60.4,21.3c-2.1,1.2-4.2,2.4-6.3,3.8,2.5-13.1,3.7-27.3,3.7-42s-1.7-35-5.4-52.4c.9-2.3,2.4-4.8,4.4-7.4,2.6-3.4,6-6.8,9.9-10.1,7.8-6.6,17.6-12.5,26.4-16.9,25.5-12.8,52.1-18.4,80-22.2,8.2-1.1,16.5-2.1,24.8-3,20.1-2.2,40.6-4.3,61.5-8.4,10.4-2,20.4-4.4,30.1-7.8,9.7-3.4,19.2-8.1,28.6-14.6,16-11.2,31.6-21.6,48.6-28.5,5.2-2.1,7.7-8,5.6-13.2s-8-7.7-13.2-5.6c-19.6,7.9-36.4,19.4-52.6,30.6-7.8,5.4-15.5,9.2-23.8,12.1-8.3,2.9-17.2,5.1-27.2,7-9,1.8-18.1,3.2-27.3,4.4,4.8-6.6,9.1-13.6,12.9-19.6,3.2-5.1,6-9.6,7.8-11.8,9.8-12.6,20-25.6,31.2-37.1,11.1-11.5,23.2-21.4,36.6-28.1,5-2.5,7-8.6,4.5-13.6s-8.6-7-13.6-4.5c-16.1,8.1-29.9,19.6-42,32.1s-22.8,26.1-32.6,38.7c-1.9,2.4-3.7,5.2-5.7,8.4-2,3.1-4.1,6.6-6.3,10.1-4.4,7.1-9.4,14.5-14.1,20.1-3.1,3.7-6.3,6.6-8.5,7.9-1.2.7-2.1,1-2.6,1.1-8.4.9-16.8,1.9-25.2,3-28.7,3.9-57.8,9.9-86.3,24.1-7.4,3.7-15.5,8.4-23,13.8-5.5,4-10.8,8.4-15.4,13.3-1.8-5.4-3.8-10.7-6-15.8-11.4-26.2-27.5-49.8-47.2-69.3.3,0,.6-.3.9-.4,4.2-2.2,7.8-5.2,10.5-8.7,5.6-7,8.4-15.4,8.5-24,0-6.2-1.6-12.5-5.5-18-3.3-4.5-9.6-5.5-14.1-2.2s-5.5,9.6-2.2,14.1c.9,1.3,1.7,3.4,1.7,6.1s-.8,6.1-2.3,8.8-3.6,4.8-5.8,5.9c-1.5.8-3.1,1.2-5.1,1.2s-6.3-.8-11.1-3.8c-.9-.7-1.9-1.4-2.8-2-7.5-5.3-15.4-10.1-23.6-14.3,1.6-7.2,2.3-14.4,2.3-21.6,0-10.7-1.5-21.2-4-31.3-4.6-19.1-13.5-35.6-22.8-50.9-9.3-15.4-19.1-29.8-26.4-44.8-4.9-10-8.6-20.1-10.6-31.1-2.5-13.6-6.1-25.8-12-36.4,3.5-2.6,7-5,10.4-7.1,5.7-3.5,11.5-6.2,18-8,5.9-1.6,12.1-2.4,18.6-2.4,11.1,0,22.7,2.4,33.7,6.5s21.2,10.1,29.5,16.9c7.2,6,11.7,12.1,14.5,18.5s4.1,13.3,4.1,20.9-2.5,22.5-6.1,35.1c-1.6,5.4,1.6,11,6.9,12.5,5.4,1.5,11-1.6,12.5-6.9,3.9-13.5,6.9-27.1,6.9-40.7s-1.6-19.7-5.8-29.1c-4.1-9.4-10.8-18.2-20.1-25.9-10.2-8.4-22.2-15.3-35.2-20.3-13-4.9-26.9-7.8-40.9-7.8s-16.2,1-24,3.2c-8.6,2.4-16.2,6-23.1,10.2-4.1,2.5-8,5.2-11.8,8-7.7-8.1-17.5-14.6-29.3-19.7,1.6-11.8,2.8-23.9,2.8-36.4s0-6.9-.3-10.3c-.8-13.6-4.5-25.9-10.2-36.5-3.2-6-7.1-11.4-11.4-16.5,3.9-7,9.2-13,15.4-19.2,7.5-7.6,16.2-15.6,23.4-26.6,8.1-12.5,12.1-26.3,12-40,0-15.1-4.7-29.9-12.9-43.3-9-14.7-20.8-26.4-32.8-37-4.2-3.7-10.6-3.3-14.3.9-3.7,4.2-3.3,10.6.9,14.3,11.4,10,21.6,20.3,28.9,32.3,6.5,10.7,9.9,21.9,9.9,32.8s-2.7,19.6-8.8,29c-5.4,8.4-12.8,15.4-20.8,23.4-5.4,5.5-11,11.5-15.8,18.9-17.1-14.2-37.6-24.6-57.4-33.8-14.2-6.5-28-12.4-39.8-18.3-11.6-5.8-21.6-11.8-30.1-18.9-6.2-5.2-11.6-11.1-16.4-18.1-15.4-31.2-36.8-46.6-65.3-47.1-24.9-.4-52.5,10.2-84.6,22.5-1.1.4-2.2.8-3.3,1.3-2.1-5.2-4.8-10-8.1-14.4-7.5-10.2-17.6-18.6-28.7-25.6-22.2-13.9-49-22.7-70.4-28-3.6-.9-6.2-2.4-10.2-4.8-1.2-.7-2.5-1.5-4-2.2,2.3-3.6,4.9-6.7,7.9-9.5,5.4-5,11.9-8.9,19.7-11.9,10-3.9,22-6.2,35-7.3.3,0,.7.4,1.3.9,1.4,1.1,3.4,3.6,5.5,6.6,1.4,2,2.8,4.1,4.6,6.3,12.6,15.8,29.5,28.7,48.3,37.2s39.7,12.7,60.3,10.3c13.7-1.6,27.3-6.2,39.6-14.3,2.6-1.7,5.1-3.6,7.6-5.6,4.3-3.5,5-9.9,1.5-14.2-3.5-4.3-9.9-5-14.2-1.5-1.9,1.6-3.9,3-6,4.4-9.6,6.3-20,9.8-30.9,11.1-10.9,1.3-22.2.2-33.2-2.7-22.2-5.9-43.2-19.9-57.2-37.4-.4-.5-.9-1.2-1.4-1.9,17.6.2,36.1,1.6,54.2,3.1,19.3,1.6,38,3.2,54.8,3.2s23-.8,32.9-3.3c21.1-3.9,41.4-9.2,61.3-13.6,20-4.4,39.5-7.7,58.8-7.7s13.8.4,20.7,1.3h0c18.2,2.7,35.7,7.9,53.9,12.6,18.1,4.7,36.9,8.8,57.5,8.8s13.4-.4,20.4-1.4h0c14.3-1.8,29.5-2.8,45.2-2.8,38.3,0,79.6,5.8,117.4,18.4,37.9,12.6,72.3,32.1,97.5,59.1.6.7,1.3,1.2,2.1,1.7,26.1,15.8,53.8,29.7,79.4,45.5s49,33.4,66.8,56.5h0c5.9,7.6,9.7,13.8,12.5,19.5-13.6-8.2-27.4-15.9-40.7-23.5-3.9-2.2-7.8-4.5-11.7-6.8h0c-38.6-23.2-74.8-50.6-112.7-76.8-24.1-16.7-47-28.9-71.2-36.9s-49.8-11.7-78.9-11.7h-14.1c-63,0-123.6-6.8-184.4-23.6-9.9-2.7-19.1-5.4-28.1-7.4s-17.9-3.4-27.2-3.4c-13.9,0-28.3,3.2-43.8,11.3h0c-5.3,1.8-8.1,7.5-6.4,12.8,7.9,23.2,28.4,40.5,52.9,43.6,5.5.7,10.6-3.2,11.3-8.8.7-5.5-3.2-10.6-8.8-11.3-13.5-1.7-25.6-10.1-32.5-21.8,9.8-4.1,18.4-5.6,27.2-5.6s14.6,1.1,22.8,2.9c8.2,1.8,17.1,4.3,27.1,7.1,62.8,17.3,125.3,24.3,189.8,24.3h14.2c27.4,0,50.5,3.4,72.5,10.7,22,7.3,43,18.4,66.1,34.4,30,20.7,59.5,42.7,90.5,62.9-2.4-.5-5.1-1.3-8.2-2.3-5.2-1.8-11.2-4.4-17.8-6.7-6.5-2.3-13.7-4.3-21.6-4.3s-15.4,2-22.6,7h0c-4.6,3.2-5.7,9.5-2.6,14.1,3.2,4.6,9.5,5.8,14.1,2.6,3.9-2.6,7.2-3.4,11.2-3.5,4.2,0,9.3,1.2,14.9,3.2,5.6,1.9,11.6,4.6,18,6.8,7.9,2.7,15.1,4.2,22.4,4.2s13.2-1.4,20.1-3.8c2.5,1.5,5.1,3,7.7,4.5,22.1,12.6,44.7,24.9,64.7,39.2h0s0,0,.2.1c26.2,17.5,54.5,41.9,74.1,61.4h0c17.8,19,32.1,42.3,41.9,67.2,9.9,25,15.1,51.6,15.1,76.9h-.2Z"/>
</svg>