<?xml version="1.0" encoding="UTF-8"?>
<svg xmlns="http://www.w3.org/2000/svg" viewBox="0 0 496.98 685.69">
  <defs>
    <style>
      .cls-1 {
        fill: #fff;
        opacity: .5;
      }
    </style>
  </defs>
  <g id="Layer_1" data-name="Layer 1" focusable="false">
    <path class="cls-1" d="M240.43,674.59c0-28.6-12-48.65-53.42-89.29l-40.24-39.47-39.75-78.85c-30.78-61.07-46.44-87.18-69.41-115.8C2.92,307.98.06,296.5,20.74,283.51c17.97-11.28,45.41-8.55,67.07,6.67,17.27,12.14,40.56,39.55,60.01,70.66,14.41,23.03,22.9,29.04,32.51,22.98,6.36-4,6.98-17.1,7.92-168.19l1.03-163.83,10.34-8.13c14.96-11.77,44.38-11.25,55.88.97,8.22,8.75,8.57,12.41,8.57,89.24v80.11l10.11-10.9c9.13-9.85,12.06-10.71,30.31-8.97,26.75,2.57,38.4,15.15,38.4,41.49,0,17.62.25,18.03,6.02,9.79,3.31-4.74,12.21-9.76,19.77-11.18,26.77-5.03,53.02,14.89,53.02,40.23q0,13.26,7.88,5.37c16.02-16.03,51.5-5.81,61.3,17.66,4.26,10.19,5.58,38.59,5.81,124.72l.3,111.52-17.78,35.59c-22.67,45.39-28.88,63.26-32.2,92.65l-2.68,23.73h-203.89v-11.12.02Z"/>
    <polygon class="cls-1" points="35.52 161.63 35.52 106.46 17.76 106.46 0 106.46 25.89 54.8 51.78 3.13 76.51 53.81 101.24 104.49 84.14 105.69 67.04 106.89 67.04 161.84 67.04 216.79 51.28 216.79 35.52 216.79 35.52 161.62 35.52 161.63"/>
    <path class="cls-1" d="M162.01,100.86C139.6,53.69,173.99,0,226.63,0c18.98,0,42.66,9.81,54.03,22.38,17.67,19.54,23.5,53.47,13.36,77.74-10.57,25.3-15.67,22.03-13.11-8.42,3.13-37.27-6.26-57.69-31.7-68.94-22.59-9.99-40.25-6.82-59.34,10.65-14.26,13.06-14.49,13.74-16.56,50.01l-2.1,36.77-9.18-19.32Z"/>
  </g>
</svg>